<svg xmlns="http://www.w3.org/2000/svg" version="1.1" xmlns:xlink="http://www.w3.org/1999/xlink" xmlns:svgjs="http://svgjs.dev/svgjs" width="1440" height="560" preserveAspectRatio="none" viewBox="0 0 1440 560"><g mask="url(&quot;#SvgjsMask3742&quot;)" fill="none"><rect width="1440" height="560" x="0" y="0" fill="url(&quot;#SvgjsLinearGradient3743&quot;)"></rect><path d="M1036 518L1035 158" stroke-width="10" stroke="url(&quot;#SvgjsLinearGradient3744&quot;)" stroke-linecap="round" class="Up"></path><path d="M1072 41L1071 -365" stroke-width="10" stroke="url(&quot;#SvgjsLinearGradient3744&quot;)" stroke-linecap="round" class="Up"></path><path d="M681 385L680 155" stroke-width="10" stroke="url(&quot;#SvgjsLinearGradient3744&quot;)" stroke-linecap="round" class="Up"></path><path d="M1104 315L1103 10" stroke-width="6" stroke="url(&quot;#SvgjsLinearGradient3745&quot;)" stroke-linecap="round" class="Up"></path><path d="M1132 527L1131 911" stroke-width="6" stroke="url(&quot;#SvgjsLinearGradient3746&quot;)" stroke-linecap="round" class="Down"></path><path d="M820 512L819 121" stroke-width="8" stroke="url(&quot;#SvgjsLinearGradient3747&quot;)" stroke-linecap="round" class="Down"></path><path d="M23 283L22 577" stroke-width="10" stroke="url(&quot;#SvgjsLinearGradient3748&quot;)" stroke-linecap="round" class="Down"></path><path d="M1256 124L1255 406" stroke-width="8" stroke="url(&quot;#SvgjsLinearGradient3747&quot;)" stroke-linecap="round" class="Down"></path><path d="M129 286L128 34" stroke-width="6" stroke="url(&quot;#SvgjsLinearGradient3744&quot;)" stroke-linecap="round" class="Up"></path><path d="M1391 24L1390 220" stroke-width="8" stroke="url(&quot;#SvgjsLinearGradient3749&quot;)" stroke-linecap="round" class="Up"></path><path d="M242 188L241 399" stroke-width="10" stroke="url(&quot;#SvgjsLinearGradient3745&quot;)" stroke-linecap="round" class="Up"></path><path d="M441 178L440 -233" stroke-width="10" stroke="url(&quot;#SvgjsLinearGradient3750&quot;)" stroke-linecap="round" class="Up"></path><path d="M959 360L958 -8" stroke-width="10" stroke="url(&quot;#SvgjsLinearGradient3751&quot;)" stroke-linecap="round" class="Down"></path><path d="M671 191L670 -58" stroke-width="8" stroke="url(&quot;#SvgjsLinearGradient3751&quot;)" stroke-linecap="round" class="Down"></path><path d="M1031 390L1030 215" stroke-width="8" stroke="url(&quot;#SvgjsLinearGradient3749&quot;)" stroke-linecap="round" class="Up"></path><path d="M236 379L235 674" stroke-width="6" stroke="url(&quot;#SvgjsLinearGradient3746&quot;)" stroke-linecap="round" class="Down"></path><path d="M15 42L14 389" stroke-width="10" stroke="url(&quot;#SvgjsLinearGradient3745&quot;)" stroke-linecap="round" class="Up"></path><path d="M772 446L771 643" stroke-width="10" stroke="url(&quot;#SvgjsLinearGradient3747&quot;)" stroke-linecap="round" class="Down"></path><path d="M470 551L469 707" stroke-width="6" stroke="url(&quot;#SvgjsLinearGradient3748&quot;)" stroke-linecap="round" class="Down"></path><path d="M980 216L979 598" stroke-width="8" stroke="url(&quot;#SvgjsLinearGradient3747&quot;)" stroke-linecap="round" class="Down"></path><path d="M652 35L651 373" stroke-width="8" stroke="url(&quot;#SvgjsLinearGradient3747&quot;)" stroke-linecap="round" class="Down"></path><path d="M912 207L911 472" stroke-width="6" stroke="url(&quot;#SvgjsLinearGradient3747&quot;)" stroke-linecap="round" class="Down"></path><path d="M51 476L50 642" stroke-width="8" stroke="url(&quot;#SvgjsLinearGradient3749&quot;)" stroke-linecap="round" class="Up"></path><path d="M1377 391L1376 668" stroke-width="10" stroke="url(&quot;#SvgjsLinearGradient3745&quot;)" stroke-linecap="round" class="Up"></path><path d="M99 186L98 36" stroke-width="10" stroke="url(&quot;#SvgjsLinearGradient3747&quot;)" stroke-linecap="round" class="Down"></path><path d="M687 54L686 269" stroke-width="6" stroke="url(&quot;#SvgjsLinearGradient3745&quot;)" stroke-linecap="round" class="Up"></path><path d="M1397 317L1396 144" stroke-width="8" stroke="url(&quot;#SvgjsLinearGradient3744&quot;)" stroke-linecap="round" class="Up"></path><path d="M349 135L348 549" stroke-width="6" stroke="url(&quot;#SvgjsLinearGradient3745&quot;)" stroke-linecap="round" class="Up"></path><path d="M878 73L877 470" stroke-width="8" stroke="url(&quot;#SvgjsLinearGradient3744&quot;)" stroke-linecap="round" class="Up"></path><path d="M1414 83L1413 270" stroke-width="10" stroke="url(&quot;#SvgjsLinearGradient3744&quot;)" stroke-linecap="round" class="Up"></path><path d="M1156 98L1155 333" stroke-width="10" stroke="url(&quot;#SvgjsLinearGradient3751&quot;)" stroke-linecap="round" class="Down"></path><path d="M614 336L613 136" stroke-width="6" stroke="url(&quot;#SvgjsLinearGradient3750&quot;)" stroke-linecap="round" class="Up"></path><path d="M1422 73L1421 389" stroke-width="8" stroke="url(&quot;#SvgjsLinearGradient3749&quot;)" stroke-linecap="round" class="Up"></path><path d="M1156 178L1155 -135" stroke-width="10" stroke="url(&quot;#SvgjsLinearGradient3746&quot;)" stroke-linecap="round" class="Down"></path><path d="M914 445L913 278" stroke-width="10" stroke="url(&quot;#SvgjsLinearGradient3751&quot;)" stroke-linecap="round" class="Down"></path><path d="M640 371L639 739" stroke-width="6" stroke="url(&quot;#SvgjsLinearGradient3745&quot;)" stroke-linecap="round" class="Up"></path></g><defs><mask id="SvgjsMask3742"><rect width="1440" height="560" fill="#ffffff"></rect></mask><linearGradient x1="15.28%" y1="139.29%" x2="84.72%" y2="-39.29%" gradientUnits="userSpaceOnUse" id="SvgjsLinearGradient3743"><stop stop-color="#0e2a47" offset="0"></stop><stop stop-color="rgba(37, 42, 52, 1)" offset="1"></stop></linearGradient><linearGradient x1="0%" y1="100%" x2="0%" y2="0%" id="SvgjsLinearGradient3744"><stop stop-color="rgba(113, 137, 185, 0)" offset="0"></stop><stop stop-color="rgba(113, 137, 185, 1)" offset="1"></stop></linearGradient><linearGradient x1="0%" y1="100%" x2="0%" y2="0%" id="SvgjsLinearGradient3745"><stop stop-color="rgba(86, 97, 119, 0)" offset="0"></stop><stop stop-color="rgba(86, 97, 119, 1)" offset="1"></stop></linearGradient><linearGradient x1="0%" y1="0%" x2="0%" y2="100%" id="SvgjsLinearGradient3746"><stop stop-color="rgba(37, 42, 52, 0)" offset="0"></stop><stop stop-color="rgba(37, 42, 52, 1)" offset="1"></stop></linearGradient><linearGradient x1="0%" y1="0%" x2="0%" y2="100%" id="SvgjsLinearGradient3747"><stop stop-color="rgba(113, 137, 185, 0)" offset="0"></stop><stop stop-color="rgba(113, 137, 185, 1)" offset="1"></stop></linearGradient><linearGradient x1="0%" y1="0%" x2="0%" y2="100%" id="SvgjsLinearGradient3748"><stop stop-color="rgba(166, 178, 202, 0)" offset="0"></stop><stop stop-color="rgba(166, 178, 202, 1)" offset="1"></stop></linearGradient><linearGradient x1="0%" y1="100%" x2="0%" y2="0%" id="SvgjsLinearGradient3749"><stop stop-color="rgba(37, 42, 52, 0)" offset="0"></stop><stop stop-color="rgba(37, 42, 52, 1)" offset="1"></stop></linearGradient><linearGradient x1="0%" y1="100%" x2="0%" y2="0%" id="SvgjsLinearGradient3750"><stop stop-color="rgba(166, 178, 202, 0)" offset="0"></stop><stop stop-color="rgba(166, 178, 202, 1)" offset="1"></stop></linearGradient><linearGradient x1="0%" y1="0%" x2="0%" y2="100%" id="SvgjsLinearGradient3751"><stop stop-color="rgba(86, 97, 119, 0)" offset="0"></stop><stop stop-color="rgba(86, 97, 119, 1)" offset="1"></stop></linearGradient></defs></svg>